<?xml version="1.0" encoding="UTF-8"?>
<svg width="275px" height="61px" viewBox="0 0 275 61" version="1.1" xmlns="http://www.w3.org/2000/svg" xmlns:xlink="http://www.w3.org/1999/xlink">
    <!-- Generator: Sketch 55.2 (78181) - https://sketchapp.com -->
    <title>Recurso 7</title>
    <desc>Created with Sketch.</desc>
    <g id="Page-1" stroke="none" stroke-width="1" fill="none" fill-rule="evenodd">
        <g id="Artboard" transform="translate(0.000000, -166.000000)" fill="#FFFFFF" fill-rule="nonzero">
            <g id="Recurso-7" transform="translate(0.000000, 166.000000)">
                <path d="M22.18,31.35 C22.18,38.51 18.18,43.52 13.18,43.52 C10.5799333,43.5897205 8.05978945,42.6176651 6.18,40.82 L6.18,21.87 C8.07455411,20.0899191 10.5804208,19.1054715 13.18,19.1198415 C18.18,19.1198415 22.18,24.18 22.18,31.35 M28.49,31.35 C28.49,19.94 20.74,13.67 14.14,13.67 C10.26,13.67 7.14,14.86 5.41,16.88 L5.19,14.41 L0,14.41 L0,60.66 L6.2,60.66 L6.2,47.16 C8.31014184,48.4234292 10.7423888,49.0453895 13.2,48.95 C22.07,48.95 28.53,41.63 28.53,31.35" id="Fill-1"></path>
                <path d="M53.22,48.2 L53,45.1 C50.89,47.64 48.63,49 44.12,49 C37.67,49 33.12,44.57 33.12,37.71 L33.12,14.41 L39.28,14.41 L39.28,37 C39.28,40.42 41.16,43.57 45.74,43.57 C47.5330954,43.6738463 49.2878963,43.022986 50.5795877,41.7749842 C51.8712791,40.5269824 52.582111,38.7956062 52.54,37 L52.54,14.41 L58.74,14.41 L58.74,48.2 L53.22,48.2 Z" id="Fill-3"></path>
                <path d="M84.09,31.12 C84.09,38.43 80.03,43.52 73.72,43.52 C72.287561,43.5588165 70.8670423,43.2500081 69.58,42.62 L69.58,20.62 C71.002304,19.5175092 72.786755,18.9893117 74.58,19.14 C79.39,19.14 84.13,23.91 84.13,31.14 M90.33,31.14 C90.33,20.62 82.95,13.69 74.62,13.69 C71.91,13.69 70.74,14.06 69.62,14.74 L69.62,0 L63.39,0 L63.39,45.66 C66.3764204,47.8645142 70.0088651,49.0178945 73.72,48.94 C83.41,48.94 90.33,41.85 90.33,31.12" id="Fill-5"></path>
                <polygon id="Fill-7" points="93.66 48.35 93.66 0.02 99.91 0.02 99.91 48.33"></polygon>
                <path d="M111.76,4.42 C111.725971,6.12213232 110.49476,7.56340156 108.818847,7.86294801 C107.142934,8.16249447 105.48869,7.23696057 104.867139,5.65200435 C104.245587,4.06704812 104.829693,2.26373003 106.262469,1.34418296 C107.695244,0.424635885 109.577978,0.644750718 110.76,1.87 C111.41724,2.55443685 111.776772,3.47124459 111.76,4.42 Z" id="Path"></path>
                <rect id="Rectangle" x="104.98" y="14.41" width="6.31" height="33.78"></rect>
                <path d="M153.37,48.16 L153.37,24.44 C153.37,21.15 151.2,19.07 147.21,19.07 C143.22,19.07 141.01,21.46 141.01,24.49 L141.01,48.16 L134.81,48.16 L134.81,24.44 C134.81,21.15 132.7,19.07 128.61,19.07 C124.73,19.07 122.37,21.46 122.37,24.49 L122.37,48.16 L116.21,48.16 L116.21,14.37 L121.69,14.37 L121.93,17.51 C124.02,15.04 126.2,13.63 130.71,13.63 C134.028738,13.6156533 137.121996,15.3076916 138.9,18.11 C140.9,15.58 144.01,13.63 149.21,13.63 C151.978565,13.526185 154.666125,14.5756022 156.631795,16.5280033 C158.597465,18.4804045 159.665061,21.1607956 159.58,23.93 L159.58,48.16 L153.37,48.16 Z" id="Fill-11"></path>
                <path d="M233.86,19.34 C228.98,19.34 223.56,22.63 223.56,30.96 L223.56,48.2 L217.36,48.2 L217.36,14.41 L223.22,14.41 L223.44,19.49 C225,15.62 228.93,14 233.52,14 L234.52,14 L234.52,19.36 L233.86,19.34 Z" id="Fill-17"></path>
                <path d="M250.85,13.83 C246.207161,13.8610718 241.770717,15.752787 238.534034,19.0815707 C235.297351,22.4103544 233.530825,26.8981165 233.63,31.54 C233.479329,37.7928455 236.729044,43.636286 242.12045,46.8070141 C247.511856,49.9777423 254.198144,49.9777423 259.58955,46.8070141 C264.980956,43.636286 268.230671,37.7928455 268.08,31.54 C268.17646,26.8971779 266.407676,22.4094654 263.169413,19.0809894 C259.931149,15.7525134 255.49372,13.8611167 250.85,13.83 Z M248.85,16.71 C249.101105,16.6400915 249.35953,16.5998174 249.62,16.59 L249.62,23.14 C248.302029,22.9633971 247.003181,22.6654655 245.74,22.25 C246.566274,20.2928637 247.609462,18.4345805 248.85,16.71 L248.85,16.71 Z M249.62,25.58 L249.62,30.35 L243.62,30.35 C243.794174,28.3006458 244.238005,26.2832336 244.94,24.35 C246.437835,24.9494694 248.007937,25.3495594 249.61,25.54 L249.62,25.58 Z M245.55,17.58 C244.798934,18.7871129 244.150011,20.0548537 243.61,21.37 C242.824878,20.997157 242.06344,20.5763621 241.33,20.11 C242.57884,19.0173824 244.015397,18.1601917 245.57,17.58 L245.55,17.58 Z M239.7,21.81 C240.707593,22.4636588 241.760228,23.0451142 242.85,23.55 C242.042084,25.7437376 241.521101,28.0326996 241.3,30.36 L236.3,30.36 C236.479332,27.2174054 237.672255,24.2175531 239.7,21.81 L239.7,21.81 Z M236.33,32.76 L241.33,32.76 C241.518813,35.0956141 242.040766,37.3922089 242.88,39.58 C241.786805,40.0882585 240.730847,40.6730449 239.72,41.33 C237.70592,38.8991415 236.530922,35.882728 236.37,32.73 L236.33,32.76 Z M241.33,43.01 C242.071737,42.5197306 242.850794,42.0884073 243.66,41.72 C244.170853,43.0683682 244.810477,44.3643601 245.57,45.59 C244.019647,44.9983392 242.594756,44.1196564 241.37,43 L241.33,43.01 Z M249.64,46.53 C249.377362,46.5095883 249.116628,46.4694755 248.86,46.41 C247.626867,44.6732022 246.603113,42.7968802 245.81,40.82 C247.069659,40.4128559 248.365664,40.1282036 249.68,39.97 L249.64,46.53 Z M249.64,37.53 C248.047029,37.7113729 246.486086,38.1083368 245,38.71 C244.301372,36.7752606 243.854375,34.7587321 243.67,32.71 L249.67,32.71 L249.64,37.53 Z M265.28,30.38 L260.28,30.38 C260.061129,28.052342 259.540081,25.7630949 258.73,23.57 C259.815651,23.0633221 260.864837,22.4819259 261.87,21.83 C263.906104,24.2252164 265.115923,27.2129418 265.32,30.35 L265.28,30.38 Z M260.28,20.13 C259.550232,20.5908023 258.788266,20.9985207 258,21.35 C257.444508,20.0342449 256.775306,18.7694514 256,17.57 C257.555539,18.1390648 258.992879,18.9899429 260.24,20.08 L260.28,20.13 Z M252,16.61 C252.259631,16.6215654 252.517516,16.6584062 252.77,16.72 C254.01838,18.4378335 255.058958,20.2974468 255.87,22.26 C254.611553,22.6801806 253.315574,22.9782223 252,23.15 L252,16.61 Z M252,25.61 C253.5964,25.4125592 255.159843,25.0057277 256.65,24.4 C257.351995,26.3332336 257.795826,28.3506458 257.97,30.4 L251.97,30.4 L252,25.61 Z M252,32.77 L258,32.77 C257.820689,34.8167078 257.383907,36.8326214 256.7,38.77 C255.211362,38.1616686 253.647113,37.7579915 252.05,37.57 L252,32.77 Z M252.77,46.41 C252.515642,46.4613281 252.258555,46.4980548 252,46.52 L252,39.94 C253.301243,40.0982681 254.58397,40.3829464 255.83,40.79 C255.053147,42.7647512 254.046198,44.6410334 252.83,46.38 L252.77,46.41 Z M256.05,45.55 C256.823988,44.3192873 257.477033,43.0165462 258,41.66 C258.80299,42.0381435 259.578254,42.4725588 260.32,42.96 C259.092691,44.0739073 257.663695,44.9428453 256.11,45.52 L256.05,45.55 Z M262,41.32 C260.996029,40.6631549 259.946729,40.078354 258.86,39.57 C259.699228,37.3856684 260.221197,35.0923725 260.41,32.76 L265.41,32.76 C265.223585,35.8998151 264.027487,38.8953201 262,41.3 L262,41.32 Z" id="Shape"></path>
                <path d="M213.38,19.41 L213.38,14.41 L203.05,14.41 L203.05,4.79 L197.05,4.79 L197.05,14.41 L191.34,14.41 L191.34,19.41 L197.05,19.41 L197.05,39 C197.05,45.2 201.34,48.62 206.74,48.62 C207.579852,48.6488795 208.419264,48.5511166 209.23,48.33 C209.838865,48.1677197 210.381175,47.8178425 210.78,47.33 L210.78,42.66 L210.78,42.66 C209.766175,43.1133972 208.659019,43.3190609 207.55,43.26 C206.396222,43.365676 205.253306,42.9658877 204.416965,42.1640745 C203.580624,41.3622613 203.133033,40.2372059 203.19,39.08 L203.19,19.41 L213.38,19.41 Z" id="Path-2"></path>
                <path d="M190,26.47 C189.81,20.19 185.51,13.69 177.46,13.69 C170.32,13.69 163.04,20.17 163.04,31.36 C163.04,41.87 170.11,48.96 178.59,48.96 C181.607531,49.0850734 184.599999,48.3646645 187.23,46.88 L187.28,46.88 C187.824685,46.4939878 188.272975,45.9875221 188.59,45.4 L188.59,40.22 C186.07582,42.418849 182.829197,43.5961958 179.49,43.52 C172.73,43.52 169.57,37.62 169.41,32.76 L189.52,32.76 C189.794088,31.1869173 189.954504,29.596134 190,28 L190,28 C190.08,27.44 190,26.88 190,26.47 Z M183.8,27.7 L169.75,27.7 C170.52,22.87 174.11,18.98 177.75,18.98 C181.51,18.98 183.95,22.98 183.95,26.58 C183.948563,26.949339 183.911727,27.31769 183.84,27.68 L183.8,27.7 Z" id="Shape-2"></path>
                <path d="M264.26,12.45 C264.181427,10.7753666 265.030105,9.19319481 266.468698,8.33236996 C267.907292,7.47154511 269.702708,7.47154511 271.141302,8.33236996 C272.579895,9.19319481 273.428573,10.7753666 273.35,12.45 C273.428573,14.1246334 272.579895,15.7068052 271.141302,16.56763 C269.702708,17.4284549 267.907292,17.4284549 266.468698,16.56763 C265.030105,15.7068052 264.181427,14.1246334 264.26,12.45 L264.26,12.45 Z M268.82,18.11 C271.933804,18.0879498 274.44278,15.5507053 274.429992,12.4368493 C274.417106,9.32299336 271.887296,6.80652161 268.773416,6.81014158 C265.659535,6.81376937 263.135589,9.33612259 263.13,12.45 C263.119137,13.9596472 263.716105,15.4101837 264.786432,16.4748678 C265.856759,17.5395518 267.310431,18.128843 268.82,18.11 L268.82,18.11 Z M267.64,12.9 L268.76,12.9 L270.47,15.72 L271.56,15.72 L269.73,12.85 C270.19261,12.8453371 270.633083,12.6512312 270.948679,12.3129577 C271.264275,11.9746842 271.427398,11.5218215 271.4,11.06 C271.4,9.77 270.64,9.21 269.12,9.21 L266.66,9.21 L266.66,15.72 L267.66,15.72 L267.64,12.9 Z M267.64,12.06 L267.64,10 L269,10 C269.68,10 270.4,10.15 270.4,11 C270.4,12 269.67,12.06 268.84,12.06 L267.64,12.06 Z" id="Shape"></path>
            </g>
        </g>
    </g>
</svg>